<svg id="Ebene_1" data-name="Ebene 1" xmlns="http://www.w3.org/2000/svg" viewBox="0 0 531.94 520.21"><defs><style>.cls-1{fill:#2a90ff;}.cls-2{fill:#4058bf;}.cls-3{fill:#fcfcfc;}.cls-4,.cls-5{fill:#fff;}.cls-5{font-size:130px;font-family:FrenchScriptMT, French Script MT;}</style></defs><polygon class="cls-1" points="409.11 263.61 409.11 411.88 109.11 411.88 109.11 111.88 257.39 111.88 409.11 263.61"/><polygon class="cls-2" points="293.11 426.88 199.78 520.21 0 320.42 93.33 227.1 109.11 242.88 109.11 411.88 278.11 411.88 293.11 426.88"/><polygon class="cls-3" points="278.11 411.88 109.11 411.88 109.11 242.88 278.11 411.88"/><polygon class="cls-2" points="531.94 199.78 438.61 293.11 409.11 263.61 409.11 111.88 257.39 111.88 238.83 93.32 332.16 0 531.94 199.78"/><polygon class="cls-4" points="409.11 111.88 409.11 263.61 257.39 111.88 409.11 111.88"/><text class="cls-5" transform="translate(217.4 294.9)">L</text></svg>